#define _width 20
#define _height 20
static char _bits[] = {
 0x00,0x00,0x00,0x00,0x00,0x00,0x00,0x00,0x00,0x00,0x00,0x00,0xc0,0x30,0x00,
 0xc0,0x30,0x00,0x80,0x19,0x00,0x00,0x0f,0x00,0x00,0x0f,0x00,0x00,0x06,0x00,
 0x00,0x0f,0x00,0x00,0x0f,0x00,0x80,0x19,0x00,0xc0,0x30,0x00,0xc0,0x30,0x00,
 0x00,0x00,0x00,0x00,0x00,0x00,0x00,0x00,0x00,0x00,0x00,0x00,0x00,0x00,0x00 };
